<svg width="33" height="38" viewBox="0 0 33 38" fill="none" xmlns="http://www.w3.org/2000/svg">
<path d="M29.9355 19.615L2.53809 2.98169L5.52651 15.2379L5.85484 19.2593L5.52651 23.7004L2.53809 35.0811L29.9355 19.615Z" fill="#00B8E5"/>
<path d="M31.9126 18.4639L1.08903 0.358112C0.963742 0.284721 0.820034 0.267453 0.683695 0.306307C0.370485 0.396965 0.17519 0.768233 0.252571 1.1395L3.42889 16.3442C3.82128 18.2185 3.76644 19.9889 3.43626 21.6974L0.252571 36.9237C0.219408 37.0835 0.234147 37.2518 0.296789 37.3943C0.440497 37.7353 0.79424 37.8735 1.08903 37.7051L31.9126 19.7029C32.0268 19.6382 32.1189 19.5259 32.1779 19.3964C32.3216 19.051 32.2037 18.6366 31.9126 18.4639ZM3.8858 32.598C7.10583 17.1779 7.2556 21.5859 3.89317 5.48248L27.0339 19.0769L3.8858 32.598Z" fill="#00A3E3"/>
</svg>
